<svg xmlns="http://www.w3.org/2000/svg" viewBox="0 0 214 58" preserveAspectRatio="xMinYMid meet" role="img" aria-labelledby="title desc">
  <title id="title">DEVER</title>
  <desc id="desc">Logo da marca DEVER com símbolo geométrico industrial baseado na letra D.</desc>
  <g fill="none" fill-rule="evenodd">
    <g transform="translate(1 2) scale(.86)">
      <path d="M32 2 56 15.5v33L32 62 8 48.5v-33L32 2Z" stroke="#D8D2C8" stroke-width="2.4"/>
      <path d="M32 9.5 49.2 19.3v25.4L32 54.5 14.8 44.7V19.3L32 9.5Z" stroke="#D8D2C8" stroke-opacity=".42" stroke-width="1"/>
      <path d="M22 18h12.7c8.8 0 14.8 5.8 14.8 14s-6 14-14.8 14H22V18Z" stroke="#D8D2C8" stroke-width="5.6" stroke-linejoin="bevel"/>
      <path d="M22 18v28" stroke="#0D0D0D" stroke-width="6.2"/>
      <path d="M17 24.5 31.5 31 17 37.5v-13Z" fill="#D8D2C8"/>
      <path d="m26.2 51 22.4-12.9v9.7L32 57.2 16.8 49l9.4 2Z" fill="#A6402D"/>
    </g>
    <text x="58" y="42" fill="#D8D2C8" font-family="Barlow Condensed, Arial Narrow, Impact, sans-serif" font-size="38" font-weight="800">DEVER</text>
    <path d="M58 49h92" stroke="#A6402D" stroke-width="1.25"/>
  </g>
</svg>
